<?xml version="1.0" encoding="utf-8"?>
<!-- Generator: Adobe Illustrator 16.0.3, SVG Export Plug-In . SVG Version: 6.00 Build 0)  -->
<!DOCTYPE svg PUBLIC "-//W3C//DTD SVG 1.1//EN" "http://www.w3.org/Graphics/SVG/1.1/DTD/svg11.dtd">
<svg version="1.1" id="レイヤー_1" xmlns="http://www.w3.org/2000/svg" xmlns:xlink="http://www.w3.org/1999/xlink" x="0px"
	 y="0px" width="288px" height="432px" viewBox="0 0 288 432" enable-background="new 0 0 288 432" xml:space="preserve">
<path fill="#FFFFFF" d="M186.711,124.744c6.957,1.149,13.028,3.326,18.072,6.302c5.071,3.015,9.091,6.833,11.875,11.225
	c2.824,4.436,4.389,9.44,4.526,14.78c0.125,5.379-1.2,11.101-4.172,16.847c-2.986,5.809-7.369,11.101-12.723,15.68
	c-5.383,4.598-11.728,8.484-18.617,11.436c-6.909,2.957-14.335,4.995-21.867,5.928c-7.497,0.923-15.076,0.747-22.288-0.723
	c-7.176-1.44-13.3-4-18.219-7.388c-4.881-3.344-8.565-7.502-10.947-12.172c-2.359-4.622-3.418-9.746-3.072-15.101
	c0.344-5.297,2.085-10.828,5.34-16.311c3.225-5.455,7.641-10.369,12.876-14.594c5.2-4.21,11.22-7.761,17.688-10.493
	c6.459-2.717,13.379-4.636,20.402-5.594C172.629,123.6,179.787,123.6,186.711,124.744"/>
<path fill="#FFFFFF" d="M189.979,118.834c11.627,1.876,21.838,5.502,30.346,10.469c8.622,5.039,15.53,11.479,20.421,18.928
	c4.957,7.551,7.828,16.154,8.263,25.354c0.44,9.335-1.631,19.278-6.555,29.36c-5.014,10.215-12.464,19.55-21.67,27.638
	c-9.268,8.157-20.269,15.004-32.249,20.195c-12.001,5.206-24.92,8.713-37.982,10.225c-12.995,1.479-26.058,0.972-38.411-1.826
	c-12.221-2.762-22.531-7.504-30.705-13.652c-8.062-6.057-14.023-13.469-17.723-21.713c-3.631-8.12-5.048-17.039-4.086-26.273
	c0.942-9.091,4.197-18.502,9.924-27.794c5.66-9.168,13.211-17.402,22.038-24.445c8.751-7.005,18.815-12.89,29.546-17.407
	c10.724-4.517,22.179-7.704,33.8-9.302C166.596,116.987,178.467,116.983,189.979,118.834 M127.078,232.248
	c9.751,2.086,20.039,2.406,30.24,1.191c10.233-1.211,20.354-3.971,29.761-8.029c9.378-4.053,18.015-9.373,25.312-15.698
	c7.249-6.297,13.153-13.541,17.148-21.494c3.962-7.871,5.676-15.655,5.402-22.991c-0.254-7.229-2.445-14.009-6.302-19.995
	c-3.818-5.909-9.263-11.034-16.104-15.063c-6.752-3.976-14.892-6.871-24.178-8.388c-9.23-1.503-18.762-1.503-28.126-0.22
	c-9.325,1.282-18.531,3.837-27.129,7.468c-8.608,3.622-16.646,8.34-23.623,13.948c-7.019,5.636-12.98,12.216-17.406,19.527
	c-4.45,7.373-6.909,14.818-7.522,22c-0.611,7.253,0.661,14.239,3.686,20.565c3.071,6.407,7.918,12.138,14.405,16.814
	C109.193,226.578,117.402,230.182,127.078,232.248"/>
<path fill="#FFFFFF" d="M278.009,190.826c-0.919-13.297-5.32-25.68-12.632-36.488c-7.152-10.589-17.119-19.694-29.426-26.791
	c-12.066-6.952-26.441-11.98-42.719-14.569c-16.059-2.55-32.579-2.502-48.776-0.249c-16.115,2.235-32.029,6.656-46.948,12.928
	c-14.957,6.283-29.033,14.47-41.398,24.23c-12.497,9.866-23.33,21.417-31.612,34.364c-8.435,13.177-13.492,26.618-15.33,39.705
	c-1.89,13.357-0.426,26.377,4.196,38.325c4.727,12.216,12.771,23.307,23.914,32.488c11.359,9.369,25.924,16.698,43.393,21.149
	c17.733,4.498,36.628,5.563,55.543,3.564c19.029-2,37.895-7.082,55.431-14.771c17.483-7.665,33.483-17.827,46.911-29.977
	c13.271-11.994,23.894-25.837,30.889-40.934C276.307,218.984,278.966,204.43,278.009,190.826 M255.74,218.143
	c-5.999,12.598-15.029,24.115-26.234,34.111c-11.316,10.096-24.776,18.545-39.455,24.942c-14.708,6.411-30.531,10.703-46.518,12.45
	c-15.904,1.766-31.838,1.005-46.848-2.607c-14.818-3.556-27.254-9.527-37.035-17.227c-9.617-7.559-16.65-16.751-20.895-26.938
	c-4.158-9.986-5.642-20.914-4.264-32.178c1.351-11.067,5.475-22.479,12.518-33.704c6.957-11.053,16.129-20.934,26.775-29.393
	c10.56-8.393,22.628-15.431,35.483-20.828c12.824-5.397,26.522-9.206,40.398-11.134c13.947-1.918,28.154-1.952,41.939,0.263
	c13.956,2.225,26.239,6.561,36.526,12.531c10.439,6.058,18.856,13.828,24.861,22.833c6.102,9.168,9.704,19.627,10.364,30.857
	C264.019,193.549,261.636,205.75,255.74,218.143"/>
<path fill="#FFFFFF" d="M109.279,171.558c-0.346,5.349,0.713,10.483,3.072,15.105c2.378,4.655,6.07,8.828,10.947,12.167
	c4.923,3.388,11.038,5.943,18.215,7.393c7.211,1.459,14.791,1.636,22.292,0.712c7.532-0.923,14.958-2.962,21.867-5.928
	c6.153-2.632,11.866-6.015,16.842-9.981c-27.617-15.063-58.848-24.316-92.063-26.148
	C109.819,167.137,109.422,169.367,109.279,171.558"/>
<path fill="#FFFFFF" d="M212.391,209.712c-7.297,6.326-15.934,11.646-25.312,15.698c-9.406,4.053-19.527,6.818-29.761,8.029
	c-10.201,1.215-20.489,0.895-30.24-1.191c-9.676-2.066-17.885-5.665-24.437-10.363c-6.487-4.676-11.334-10.407-14.405-16.814
	c-3.024-6.326-4.308-13.312-3.686-20.565c0.545-6.479,2.612-13.168,6.287-19.833c-6.379,0.216-12.689,0.704-18.919,1.446
	c-0.822,1.195-1.616,2.401-2.368,3.626c-5.727,9.292-8.981,18.704-9.918,27.794c-0.968,9.235,0.449,18.153,4.086,26.273
	c3.693,8.244,9.655,15.656,17.717,21.713c8.174,6.148,18.484,10.891,30.705,13.652c12.354,2.798,25.416,3.306,38.411,1.826
	c13.054-1.512,25.977-5.023,37.982-10.225c11.98-5.191,22.985-12.038,32.259-20.195c5.885-5.174,11.043-10.863,15.311-16.953
	c-5.091-4.159-10.363-8.091-15.818-11.785C217.884,204.602,215.252,207.238,212.391,209.712"/>
<path fill="#FFFFFF" d="M250.955,226.928c-5.636,9.196-12.908,17.703-21.449,25.326c-11.316,10.09-24.78,18.54-39.446,24.942
	c-14.722,6.406-30.546,10.703-46.526,12.454c-15.904,1.762-31.838,1.001-46.848-2.607c-14.813-3.564-27.254-9.531-37.035-17.234
	c-9.617-7.555-16.65-16.752-20.89-26.934c-4.163-9.986-5.646-20.914-4.269-32.178c1.351-11.067,5.475-22.474,12.522-33.699
	c1.632-2.599,3.396-5.125,5.269-7.589c-7.264,1.55-14.384,3.469-21.351,5.733c-2.287,2.957-4.44,5.99-6.431,9.105
	C16.063,197.424,11,210.875,9.162,223.957c-1.885,13.357-0.421,26.373,4.201,38.33c4.727,12.205,12.771,23.307,23.914,32.488
	c11.359,9.364,25.924,16.693,43.393,21.139c17.733,4.504,36.628,5.574,55.543,3.57c19.029-2,37.891-7.082,55.422-14.775
	c17.488-7.656,33.492-17.828,46.92-29.968c10.765-9.741,19.799-20.688,26.555-32.546
	C260.641,236.889,255.912,231.789,250.955,226.928"/>
</svg>
